<svg width="1277" height="400" viewBox="0 0 1277 400" fill="none" xmlns="http://www.w3.org/2000/svg">
<path d="M258.201 265.834C230.395 265.834 208.042 249.205 197.592 225.216H214.13C248.66 225.216 276.738 197.138 276.738 162.608C276.738 128.078 248.66 100 214.13 100H189.323C179.964 100 172.422 107.542 172.422 116.901C172.422 126.261 179.964 133.803 189.323 133.803H214.13C229.941 133.803 242.844 146.706 242.844 162.517C242.844 178.328 229.941 191.231 214.13 191.231H192.049V183.962C192.049 161.245 173.603 142.799 150.886 142.799H141.163C118.446 142.799 100 161.245 100 183.962C100 206.679 111.449 217.038 127.442 222.672V282.826C127.442 292.185 134.984 299.727 144.343 299.727C153.703 299.727 161.245 292.185 161.245 282.826V225.034H161.608C173.421 268.015 209.223 299 255.929 299C275.92 298.092 276.465 292.185 276.465 282.826C276.465 273.467 268.923 265.925 259.564 265.925L258.201 265.834ZM158.155 191.322H141.163C137.165 191.322 133.894 188.051 133.894 184.053C133.894 180.055 137.165 176.783 141.163 176.783H150.886C154.884 176.783 158.155 180.055 158.155 184.053V191.322Z" fill="#172965"/>
<path d="M146.07 136.62C156.107 136.62 164.244 128.483 164.244 118.446C164.244 108.409 156.107 100.273 146.07 100.273C136.033 100.273 127.896 108.409 127.896 118.446C127.896 128.483 136.033 136.62 146.07 136.62Z" fill="#FFC000"/>
<path d="M408.497 228.487C408.497 238.664 401.954 243.753 391.504 243.753H312.54C313.994 259.837 328.351 271.195 346.071 271.195C363.79 271.195 366.698 266.379 373.331 258.565C376.693 254.475 380.6 252.931 384.508 252.931C392.322 252.931 399.319 259.473 399.319 267.47C399.047 273.103 398.138 274.285 394.957 277.647C382.599 291.277 366.243 299.546 345.889 299.546C306.725 299.546 278.374 273.285 278.374 233.939C278.374 194.594 305.634 167.333 343.708 167.333C381.782 167.333 404.226 191.868 408.315 224.671C408.588 225.852 408.588 227.124 408.588 228.306L408.497 228.487ZM312.54 220.945H374.966C373.513 205.679 360.609 195.23 343.617 195.23C326.625 195.23 313.449 205.679 312.54 220.945Z" fill="#172965"/>
<path d="M417.039 280.918C413.677 276.829 412.223 272.649 412.223 268.741C412.223 260.018 420.037 253.203 428.488 253.203C436.939 253.203 438.211 255.384 442.3 260.473C448.842 268.741 455.385 272.649 466.38 272.649C477.375 272.649 485.826 268.56 485.826 261.199C485.826 240.3 412.223 252.93 412.223 207.224C412.223 161.518 435.303 167.333 463.29 167.333C491.278 167.333 501.455 174.602 509.724 183.598C513.631 187.687 515.085 192.14 515.085 195.956C515.085 203.498 508.997 209.768 501.001 209.768C493.004 209.768 491.278 207.86 486.462 203.226C480.101 197.41 472.377 193.23 462.927 193.23C453.477 193.23 445.935 197.138 445.935 204.135C445.935 225.034 520.81 210.95 520.81 258.564C520.81 306.179 497.457 299.364 466.38 299.364C435.303 299.364 427.579 293.639 417.675 281.736L417.039 280.918Z" fill="#172965"/>
<path d="M520.81 233.576C520.81 195.411 549.524 167.515 589.324 167.515C629.124 167.515 658.111 195.502 658.111 233.576C658.111 271.649 629.215 299.637 589.324 299.637C549.433 299.637 520.81 271.922 520.81 233.576ZM624.581 233.576C624.581 213.403 609.769 198.592 589.324 198.592C568.879 198.592 554.34 213.403 554.34 233.576C554.34 253.748 569.151 268.56 589.324 268.56C609.497 268.56 624.581 253.748 624.581 233.576Z" fill="#172965"/>
<path d="M790.05 185.961V281.463C790.05 292.912 781.055 298.728 772.513 298.728C763.971 298.728 754.975 292.912 754.975 281.463V279.555C746.979 292.458 734.076 300 715.811 300C689.369 300 664.562 283.19 664.562 244.389V186.779C664.562 174.603 673.558 168.514 682.099 168.514C690.641 168.514 699.364 174.603 699.364 186.779V239.028C699.364 263.562 713.176 270.377 726.625 270.377C740.073 270.377 755.066 259.927 755.066 238.301V186.052C755.066 174.603 763.79 168.787 772.604 168.787C781.418 168.787 790.141 174.603 790.141 186.052L790.05 185.961Z" fill="#172965"/>
<path d="M866.108 169.696C876.83 169.696 881.646 176.238 881.646 183.326C881.646 190.414 876.012 199.409 862.927 200.136C846.662 201.136 838.666 209.859 838.666 224.671V281.736C838.666 293.185 829.942 299.001 821.401 299.001C812.859 299.001 804.136 293.185 804.136 281.736V185.779C804.136 174.603 812.859 168.514 821.401 168.514C829.942 168.514 838.666 174.603 838.666 185.779V186.052C843.754 177.51 851.024 171.513 862.473 169.968C863.654 169.696 864.926 169.696 866.108 169.696Z" fill="#172965"/>
<path d="M943.163 299.637C910.36 299.637 875.375 279.918 875.375 233.576C875.375 187.233 909.905 167.969 942.436 167.969C973.331 171.331 967.425 170.423 976.966 174.512C983.781 177.874 984.962 184.053 984.962 189.414C984.962 194.775 979.601 203.771 971.332 203.771C966.97 203.135 967.697 203.317 965.516 202.59C959.883 200.409 953.613 199.228 947.252 199.228C928.533 199.228 909.814 209.223 909.814 233.939C909.814 258.655 927.534 268.469 946.979 268.469C966.425 268.469 959.337 267.469 965.425 265.107C967.334 264.38 969.06 264.107 970.787 264.107C978.783 264.107 984.417 271.377 984.417 278.919C984.417 286.461 981.782 289.823 974.967 293.003C965.698 297.365 954.521 299.818 943.163 299.818V299.637Z" fill="#172965"/>
<path d="M1176.87 223.126V280.918C1176.87 292.822 1167.88 298.91 1159.34 298.91C1150.8 298.91 1141.8 292.822 1141.8 280.918V228.396C1141.8 203.862 1127.99 197.047 1114.81 197.047C1101.64 197.047 1086.37 207.497 1086.1 229.396V281.372C1086.1 292.822 1077.37 298.637 1068.83 298.637C1060.29 298.637 1051.3 292.822 1051.3 281.372V185.87C1051.3 174.421 1060.02 168.605 1068.83 168.605C1077.65 168.605 1086.1 174.239 1086.1 185.87V188.051C1094.09 174.966 1107 167.424 1125.26 167.424C1151.98 167.424 1176.78 184.416 1176.78 223.035L1176.87 223.126Z" fill="#172965"/>
<path d="M1006.17 186.245C1006.17 174.614 1015.17 168.708 1023.89 168.708C1032.61 168.708 1041.43 174.523 1041.43 186.245V282.201C1041.43 293.832 1032.7 299.739 1023.89 299.739C1015.07 299.739 1006.17 293.923 1006.17 282.201V186.245Z" fill="#172965"/>
<path d="M1023.8 161.257C1033.53 161.257 1041.43 153.364 1041.43 143.628C1041.43 133.892 1033.53 126 1023.8 126C1014.06 126 1006.17 133.892 1006.17 143.628C1006.17 153.364 1014.06 161.257 1023.8 161.257Z" fill="#172965"/>
</svg>
